<?xml version="1.0" encoding="UTF-8" standalone="no"?>
<svg width="57px" height="57px" viewBox="0 0 57 57" version="1.1" xmlns="http://www.w3.org/2000/svg" xmlns:xlink="http://www.w3.org/1999/xlink">
    <!-- Generator: sketchtool 41.1 (35376) - http://www.bohemiancoding.com/sketch -->
    <title>CF014BA0-0AEB-4DD0-9496-E13CADDA3C79</title>
    <desc>Created with sketchtool.</desc>
    <defs></defs>
    <g id="Smart-TV-UI" stroke="none" stroke-width="1" fill="none" fill-rule="evenodd">
        <g id="button_states" transform="translate(-196.000000, -1401.000000)">
            <g id="Backward_regular_player" transform="translate(196.000000, 1401.000000)">
                <path d="M28.4002357,52.7598566 C14.9498476,52.7598566 4.03957447,41.8542079 4.03957447,28.4038198 C4.03957447,14.947486 14.9498476,4.04381915 28.4002357,4.04381915 C41.8512845,4.04381915 52.7595757,14.947486 52.7595757,28.4038198 C52.7595757,41.8542079 41.8512845,52.7598566 28.4002357,52.7598566 M0,28.4035851 C0,44.0640319 12.7395,56.8035319 28.3999468,56.8035319 C44.0603936,56.8035319 56.7968617,44.0640319 56.7968617,28.4035851 C56.7968617,12.7395 44.0603936,0 28.3999468,0 C12.7395,0 0,12.7395 0,28.4035851 Z" id="Fill-1-Copy-2" fill="#D8D8D8"></path>
                <path d="M17.0446222,19.3788378 C16.7509661,18.8737207 16,18.8737207 16,19.3788378 L16,39.9018697 C16,40.4075931 16.7527373,40.4075931 17.047456,39.9018697 L26.8883003,30.5532633 C27.1830191,30.0505718 27.1879783,29.2325612 26.893968,28.7280505 L17.0446222,19.3788378 Z" id="Fill-3-Copy-4" fill="#3FCDFF" transform="translate(21.555963, 29.640581) scale(-1, 1) translate(-21.555963, -29.640581) "></path>
                <path d="M28.0446222,19.3788378 C27.7509661,18.8737207 27,18.8737207 27,19.3788378 L27,39.9018697 C27,40.4075931 27.7527373,40.4075931 28.047456,39.9018697 L37.8883003,30.5532633 C38.1830191,30.0505718 38.1879783,29.2325612 37.893968,28.7280505 L28.0446222,19.3788378 Z" id="Fill-3-Copy-5" fill="#3FCDFF" transform="translate(32.555963, 29.640581) scale(-1, 1) translate(-32.555963, -29.640581) "></path>
            </g>
        </g>
    </g>
</svg>