<?xml version="1.0" encoding="UTF-8" standalone="no"?>
<svg width="57px" height="57px" viewBox="0 0 57 57" version="1.1" xmlns="http://www.w3.org/2000/svg" xmlns:xlink="http://www.w3.org/1999/xlink">
    <!-- Generator: sketchtool 41.1 (35376) - http://www.bohemiancoding.com/sketch -->
    <title>9C3F5DE6-D16D-4F07-8EED-933FAF950539</title>
    <desc>Created with sketchtool.</desc>
    <defs></defs>
    <g id="Smart-TV-UI" stroke="none" stroke-width="1" fill="none" fill-rule="evenodd">
        <g id="button_states" transform="translate(-192.000000, -1317.000000)">
            <g id="Forward_regular_player" transform="translate(192.000000, 1317.000000)">
                <path d="M28.4002357,52.7598566 C14.9498476,52.7598566 4.03957447,41.8542079 4.03957447,28.4038198 C4.03957447,14.947486 14.9498476,4.04381915 28.4002357,4.04381915 C41.8512845,4.04381915 52.7595757,14.947486 52.7595757,28.4038198 C52.7595757,41.8542079 41.8512845,52.7598566 28.4002357,52.7598566 M0,28.4035851 C0,44.0640319 12.7395,56.8035319 28.3999468,56.8035319 C44.0603936,56.8035319 56.7968617,44.0640319 56.7968617,28.4035851 C56.7968617,12.7395 44.0603936,0 28.3999468,0 C12.7395,0 0,12.7395 0,28.4035851 Z" id="Fill-1-Copy" fill="#D8D8D8"></path>
                <g id="Group" transform="translate(19.000000, 19.000000)" fill="#3FCDFF">
                    <path d="M1.04462221,0.378837766 C0.750966121,-0.126279255 0,-0.126279255 0,0.378837766 L0,20.9018697 C0,21.4075931 0.752737268,21.4075931 1.04745605,20.9018697 L10.8883003,11.5532633 C11.1830191,11.0505718 11.1879783,10.2325612 10.893968,9.72805053 L1.04462221,0.378837766 Z" id="Fill-3-Copy-2"></path>
                    <path d="M12.0446222,0.378837766 C11.7509661,-0.126279255 11,-0.126279255 11,0.378837766 L11,20.9018697 C11,21.4075931 11.7527373,21.4075931 12.047456,20.9018697 L21.8883003,11.5532633 C22.1830191,11.0505718 22.1879783,10.2325612 21.893968,9.72805053 L12.0446222,0.378837766 Z" id="Fill-3-Copy-3"></path>
                </g>
            </g>
        </g>
    </g>
</svg>