<?xml version="1.0" encoding="UTF-8" standalone="no"?>
<svg width="65px" height="65px" viewBox="0 0 65 65" version="1.1" xmlns="http://www.w3.org/2000/svg" xmlns:xlink="http://www.w3.org/1999/xlink">
    <!-- Generator: sketchtool 40.1 (33804) - http://www.bohemiancoding.com/sketch -->
    <title>AE3F7A9B-149A-4824-9765-C89ACF34C59C</title>
    <desc>Created with sketchtool.</desc>
    <defs>
        <polyline id="path-1" points="0 0 65 0 65 65 0 65"></polyline>
    </defs>
    <g id="Smart-TV-UI" stroke="none" stroke-width="1" fill="none" fill-rule="evenodd">
        <g id="button_states" transform="translate(-186.000000, -964.000000)">
            <g id="Home_button_reg" transform="translate(218.500000, 996.500000) scale(-1, 1) translate(-218.500000, -996.500000) translate(186.000000, 964.000000)">
                <g id="Group-3">
                    <mask id="mask-2" fill="white">
                        <use xlink:href="#path-1"></use>
                    </mask>
                    <g id="Clip-2"></g>
                    <path d="M32.4978324,61.0833462 C16.7331041,61.0833462 3.91283333,48.2619107 3.91283333,32.485535 C3.91283333,16.7219714 16.7331041,3.91218333 32.4978324,3.91218333 C48.2625607,3.91218333 61.0828315,16.7219714 61.0828315,32.485535 C61.0828315,48.2619107 48.2625607,61.0833462 32.4978324,61.0833462 M0,32.4885167 C0,50.4155167 14.5838333,65.0004333 32.5,65.0004333 C50.4161667,65.0004333 65,50.4155167 65,32.4885167 C65,21.3130506 59.3250072,11.4380862 50.706205,5.58981038 C45.5084416,2.06287547 39.2400249,0.000433333333 32.5,0.000433333333 C14.5838333,0.000433333333 0,14.5734333 0,32.4885167 Z" id="Fill-1" fill="#979797" mask="url(#mask-2)"></path>
                </g>
                <path d="M44.949144,43.0882972 L38.4951232,43.0882972 L38.4951232,33.7043634 L26.2663288,33.7043634 C26.233481,36.8325369 26.1935943,39.9601238 26.1560538,43.0882972 L19.7208033,43.0882972 L19.7208033,27.0955888 L16.2008016,30.1750771 L16.2008016,46.6071258 L29.6396882,46.6071258 C29.6725361,43.4795389 29.7124228,40.3513654 29.7499632,37.2231919 L34.9751215,37.2231919 L34.9751215,46.6071258 L48.4691456,46.6071258 L48.4691456,30.1750771 C47.2960073,29.1180794 46.1222823,28.0610817 44.949144,27.0040841 L44.949144,43.0882972 Z M32.5185698,12.0036498 C32.1367132,12.0259395 31.7636552,12.1761012 31.4733035,12.4248065 L13.2855528,28.2610014 C12.5875355,28.8645811 12.5030695,30.0500374 13.1089955,30.746295 C13.7143349,31.4431392 14.8997912,31.5252589 15.5954622,30.9181598 L32.6100746,16.1090476 L49.0563014,30.8999761 C49.7361351,31.5493082 50.956199,31.5012095 51.5832414,30.8008459 C52.2102839,30.1004823 52.1234717,28.8833513 51.4031647,28.279185 L33.8019832,12.4435767 C33.4547342,12.1350413 32.9813729,11.9731482 32.5185698,12.0036498" id="Page-1" fill="#3FCDFF"></path>
            </g>
        </g>
    </g>
</svg>