<?xml version="1.0" encoding="UTF-8" standalone="no"?>
<svg width="97px" height="97px" viewBox="0 0 97 97" version="1.1" xmlns="http://www.w3.org/2000/svg" xmlns:xlink="http://www.w3.org/1999/xlink">
    <!-- Generator: sketchtool 39.1 (31720) - http://www.bohemiancoding.com/sketch -->
    <title>B9147CD0-0FEB-40CF-86B9-D4EA10BC6B70</title>
    <desc>Created with sketchtool.</desc>
    <defs>
        <path d="M32.4978324,61.0833462 C16.7331041,61.0833462 3.91283333,48.2619107 3.91283333,32.485535 C3.91283333,16.7219714 16.7331041,3.91218333 32.4978324,3.91218333 C48.2625607,3.91218333 61.0828315,16.7219714 61.0828315,32.485535 C61.0828315,48.2619107 48.2625607,61.0833462 32.4978324,61.0833462 M0,32.4885167 C0,50.4155167 14.5838333,65.0004333 32.5,65.0004333 C50.4161667,65.0004333 65,50.4155167 65,32.4885167 C65,21.3130506 59.3250072,11.4380862 50.706205,5.58981038 C45.5084416,2.06287547 39.2400249,0.000433333333 32.5,0.000433333333 C14.5838333,0.000433333333 0,14.5734333 0,32.4885167 Z" id="path-1"></path>
        <filter x="-50%" y="-50%" width="200%" height="200%" filterUnits="objectBoundingBox" id="filter-2">
            <feMorphology radius="1" operator="dilate" in="SourceAlpha" result="shadowSpreadOuter1"></feMorphology>
            <feOffset dx="0" dy="0" in="shadowSpreadOuter1" result="shadowOffsetOuter1"></feOffset>
            <feMorphology radius="4" operator="erode" in="SourceAlpha" result="shadowInner"></feMorphology>
            <feOffset dx="0" dy="0" in="shadowInner" result="shadowInner"></feOffset>
            <feComposite in="shadowOffsetOuter1" in2="shadowInner" operator="out" result="shadowOffsetOuter1"></feComposite>
            <feGaussianBlur stdDeviation="7.5" in="shadowOffsetOuter1" result="shadowBlurOuter1"></feGaussianBlur>
            <feColorMatrix values="0 0 0 0 0   0 0 0 0 0.788235294   0 0 0 0 1  0 0 0 0.5 0" type="matrix" in="shadowBlurOuter1"></feColorMatrix>
        </filter>
        <mask id="mask-3" maskContentUnits="userSpaceOnUse" maskUnits="objectBoundingBox" x="0" y="0" width="65" height="65" fill="white">
            <use xlink:href="#path-1"></use>
        </mask>
    </defs>
    <g id="Smart-TV-UI" stroke="none" stroke-width="1" fill="none" fill-rule="evenodd">
        <g id="button_states" transform="translate(-427.000000, -217.000000)">
            <g id="Icon_Back_hover" transform="translate(475.500000, 265.500000) scale(-1, 1) translate(-475.500000, -265.500000) translate(443.000000, 233.000000)">
                <g id="Group-3">
                    <g id="Fill-1">
                        <use fill="black" fill-opacity="1" filter="url(#filter-2)" xlink:href="#path-1"></use>
                        <use stroke="#2CCBFF" mask="url(#mask-3)" stroke-width="6" xlink:href="#path-1"></use>
                    </g>
                </g>
                <path d="M33.2501,45.838975 C34.2500167,46.8313083 35.8706833,46.8313083 36.8695167,45.838975 C37.8694333,44.8466417 37.8694333,43.2368083 36.8695167,42.2433917 L26.96785,32.4998917 L36.8695167,22.7563917 C37.8694333,21.7640583 37.8694333,20.154225 36.8695167,19.1608083 C36.3701,18.665725 35.7146833,18.4165583 35.06035,18.4165583 C34.4049333,18.4165583 33.7495167,18.665725 33.2501,19.1608083 L21.6302667,30.7026417 C20.63035,31.694975 20.63035,33.3048083 21.6302667,34.298225 L33.2501,45.838975 Z" id="Fill-4" fill="#3FCDFF"></path>
            </g>
        </g>
    </g>
</svg>