<?xml version="1.0" encoding="UTF-8" standalone="no"?>
<svg width="21px" height="21px" viewBox="0 0 21 21" version="1.1" xmlns="http://www.w3.org/2000/svg" xmlns:xlink="http://www.w3.org/1999/xlink">
    <!-- Generator: sketchtool 39.1 (31720) - http://www.bohemiancoding.com/sketch -->
    <title>2EA04CF4-383A-4F2F-B0CA-2063491A82FC</title>
    <desc>Created with sketchtool.</desc>
    <defs>
        <polyline id="path-1" points="0 0.04452 20.8988182 0.04452 20.8988182 21 0 21"></polyline>
    </defs>
    <g id="Smart-TV-UI" stroke="none" stroke-width="1" fill="none" fill-rule="evenodd">
        <g id="button_states" transform="translate(-465.000000, -126.000000)">
            <g id="Icon_search_circle_hover" transform="translate(443.000000, 104.000000)">
                <g id="Icon_search" transform="translate(22.000000, 22.000000)">
                    <mask id="mask-2" fill="white">
                        <use xlink:href="#path-1"></use>
                    </mask>
                    <g id="Clip-2"></g>
                    <path d="M8.45875758,2.30853 C11.8798485,2.30853 14.6628788,5.06394 14.6628788,8.45082 C14.6628788,11.83728 11.8798485,14.5929 8.45875758,14.5929 C5.03766667,14.5929 2.25442424,11.83728 2.25442424,8.45082 C2.25442424,5.06394 5.03766667,2.30853 8.45875758,2.30853 M20.6949697,19.0596 L15.1507576,13.54122 C15.3070909,13.33101 15.4165455,13.18338 15.4929091,13.07964 L15.5022424,13.06704 C15.5646061,12.98577 15.6248485,12.90408 15.6833939,12.82071 L15.688697,12.81357 L15.6884848,12.81357 C17.8603939,9.72321 17.3795152,5.35248 14.5069697,2.50887 C12.9018485,0.91959 10.767697,0.04452 8.498,0.04452 C6.22830303,0.04452 4.09457576,0.91959 2.48924242,2.50866 C0.884121212,4.09773 0,6.21054 0,8.45796 C0,10.70517 0.883909091,12.81819 2.48924242,14.40705 C4.08990909,15.99192 6.21875758,16.86468 8.48336364,16.86468 C9.84093939,16.86468 11.1936364,16.53939 12.4037879,15.91989 C12.5397576,15.84408 12.943,15.61224 13.266697,15.3531 L18.8974545,20.79966 C18.9311818,20.83305 19.1129697,21 19.3772727,21 C19.4930909,21 19.6661818,20.96619 19.8335455,20.80512 L20.1148182,20.53632 C20.329697,20.33157 20.5556061,20.11611 20.7174545,19.95609 C21.0320303,19.64445 20.8795152,19.25259 20.6949697,19.0596" id="Fill-1" fill="#292E38" mask="url(#mask-2)"></path>
                </g>
            </g>
        </g>
    </g>
</svg>