<?xml version="1.0" encoding="UTF-8" standalone="no"?>
<svg width="35px" height="35px" viewBox="0 0 35 35" version="1.1" xmlns="http://www.w3.org/2000/svg" xmlns:xlink="http://www.w3.org/1999/xlink">
    <!-- Generator: sketchtool 39.1 (31720) - http://www.bohemiancoding.com/sketch -->
    <title>30DFBC95-F16B-4045-A3B5-D7E0A2AA26F7</title>
    <desc>Created with sketchtool.</desc>
    <defs>
        <linearGradient x1="50%" y1="0%" x2="50%" y2="100%" id="linearGradient-1">
            <stop stop-color="#FBDA61" offset="0%"></stop>
            <stop stop-color="#F7AF1C" offset="100%"></stop>
        </linearGradient>
    </defs>
    <g id="Smart-TV-UI" stroke="none" stroke-width="1" fill="none" fill-rule="evenodd">
        <g id="MOVIE-INFO" transform="translate(-1480.000000, -266.000000)" fill="url(#linearGradient-1)">
            <path d="M1513.84191,278.333471 L1503.46448,276.751247 L1498.81308,266.888621 C1498.55147,266.296118 1498.21348,266 1497.80013,266 C1497.38678,266 1497.04904,266.296118 1496.78718,266.888621 L1492.13552,276.751247 L1481.75759,278.333471 C1480.98595,278.463571 1480.6,278.795873 1480.6,279.330642 C1480.6,279.63421 1480.77229,279.981144 1481.11688,280.37118 L1488.64195,288.044447 L1486.86421,298.882427 C1486.83655,299.084894 1486.82285,299.229628 1486.82285,299.316096 C1486.82285,299.619663 1486.89517,299.875873 1487.0398,300.08579 C1487.18444,300.295441 1487.40139,300.4 1487.69091,300.4 C1487.93908,300.4 1488.21464,300.313798 1488.51787,300.140065 L1497.79987,295.02411 L1507.08264,300.140065 C1507.37242,300.313532 1507.64798,300.4 1507.90934,300.4 C1508.18567,300.4 1508.39552,300.295707 1508.54015,300.08579 C1508.68453,299.876139 1508.75685,299.619663 1508.75685,299.316096 C1508.75685,299.128261 1508.75,298.983794 1508.73604,298.882427 L1506.95805,288.044447 L1514.46231,280.37118 C1514.82111,279.995511 1515,279.648577 1515,279.330642 C1515,278.795873 1514.61431,278.463571 1513.84191,278.333471 Z" id="Icon_copy"></path>
        </g>
    </g>
</svg>