<?xml version="1.0" encoding="UTF-8" standalone="no"?>
<svg width="57px" height="57px" viewBox="0 0 57 57" version="1.1" xmlns="http://www.w3.org/2000/svg" xmlns:xlink="http://www.w3.org/1999/xlink">
    <!-- Generator: sketchtool 41.1 (35376) - http://www.bohemiancoding.com/sketch -->
    <title>3B5BA0B6-DD9D-456C-8935-35A343E5A5D8</title>
    <desc>Created with sketchtool.</desc>
    <defs></defs>
    <g id="Smart-TV-UI" stroke="none" stroke-width="1" fill="none" fill-rule="evenodd">
        <g id="button_states" transform="translate(-190.000000, -1228.000000)">
            <g id="Pause_regular_player" transform="translate(190.000000, 1228.000000)">
                <path d="M28.4002357,52.9563247 C14.9498476,52.9563247 4.03957447,42.050676 4.03957447,28.6002878 C4.03957447,15.143954 14.9498476,4.24028723 28.4002357,4.24028723 C41.8512845,4.24028723 52.7595757,15.143954 52.7595757,28.6002878 C52.7595757,42.050676 41.8512845,52.9563247 28.4002357,52.9563247 M0,28.6000532 C0,44.2605 12.7395,57 28.3999468,57 C44.0603936,57 56.7968617,44.2605 56.7968617,28.6000532 C56.7968617,12.9359681 44.0603936,0.196468085 28.3999468,0.196468085 C12.7395,0.196468085 0,12.9359681 0,28.6000532 Z" id="Fill-1" fill="#D8D8D8"></path>
                <rect id="Rectangle" fill="#3FCDFF" x="20" y="19" width="6" height="21" rx="1"></rect>
                <rect id="Rectangle-Copy" fill="#3FCDFF" x="31" y="19" width="6" height="21" rx="1"></rect>
            </g>
        </g>
    </g>
</svg>