<?xml version="1.0" encoding="UTF-8" standalone="no"?>
<svg width="89px" height="89px" viewBox="0 0 89 89" version="1.1" xmlns="http://www.w3.org/2000/svg" xmlns:xlink="http://www.w3.org/1999/xlink">
    <!-- Generator: sketchtool 41.1 (35376) - http://www.bohemiancoding.com/sketch -->
    <title>43EE31F7-28DA-42A4-B7C9-530808ECFBC0</title>
    <desc>Created with sketchtool.</desc>
    <defs>
        <path d="M28.4002357,52.9563247 C14.9498476,52.9563247 4.03957447,42.050676 4.03957447,28.6002878 C4.03957447,15.143954 14.9498476,4.24028723 28.4002357,4.24028723 C41.8512845,4.24028723 52.7595757,15.143954 52.7595757,28.6002878 C52.7595757,42.050676 41.8512845,52.9563247 28.4002357,52.9563247 M0,28.6000532 C0,44.2605 12.7395,57 28.3999468,57 C44.0603936,57 56.7968617,44.2605 56.7968617,28.6000532 C56.7968617,12.9359681 44.0603936,0.196468085 28.3999468,0.196468085 C12.7395,0.196468085 0,12.9359681 0,28.6000532 Z" id="path-1"></path>
        <filter x="-50%" y="-50%" width="200%" height="200%" filterUnits="objectBoundingBox" id="filter-2">
            <feMorphology radius="1" operator="dilate" in="SourceAlpha" result="shadowSpreadOuter1"></feMorphology>
            <feOffset dx="0" dy="0" in="shadowSpreadOuter1" result="shadowOffsetOuter1"></feOffset>
            <feMorphology radius="4" operator="erode" in="SourceAlpha" result="shadowInner"></feMorphology>
            <feOffset dx="0" dy="0" in="shadowInner" result="shadowInner"></feOffset>
            <feComposite in="shadowOffsetOuter1" in2="shadowInner" operator="out" result="shadowOffsetOuter1"></feComposite>
            <feGaussianBlur stdDeviation="7.5" in="shadowOffsetOuter1" result="shadowBlurOuter1"></feGaussianBlur>
            <feColorMatrix values="0 0 0 0 0   0 0 0 0 0.788235294   0 0 0 0 1  0 0 0 0.5 0" type="matrix" in="shadowBlurOuter1"></feColorMatrix>
        </filter>
        <mask id="mask-3" maskContentUnits="userSpaceOnUse" maskUnits="objectBoundingBox" x="0" y="0" width="56.7968617" height="56.8035319" fill="white">
            <use xlink:href="#path-1"></use>
        </mask>
    </defs>
    <g id="Smart-TV-UI" stroke="none" stroke-width="1" fill="none" fill-rule="evenodd">
        <g id="button_states" transform="translate(-429.000000, -1212.000000)">
            <g id="Pause_Selected_player" transform="translate(445.000000, 1228.000000)">
                <g id="Fill-1">
                    <use fill="black" fill-opacity="1" filter="url(#filter-2)" xlink:href="#path-1"></use>
                    <use stroke="#2CCBFF" mask="url(#mask-3)" stroke-width="6" xlink:href="#path-1"></use>
                </g>
                <rect id="Rectangle" fill="#3FCDFF" x="20" y="19" width="6" height="21" rx="1"></rect>
                <rect id="Rectangle-Copy" fill="#3FCDFF" x="31" y="19" width="6" height="21" rx="1"></rect>
            </g>
        </g>
    </g>
</svg>