<?xml version="1.0" encoding="UTF-8" standalone="no"?>
<svg width="251px" height="373px" viewBox="0 0 251 373" version="1.1" xmlns="http://www.w3.org/2000/svg" xmlns:xlink="http://www.w3.org/1999/xlink">
    <!-- Generator: sketchtool 40.1 (33804) - http://www.bohemiancoding.com/sketch -->
    <title>EA2580F6-4F3C-4C52-A743-2CAE5A040956</title>
    <desc>Created with sketchtool.</desc>
    <defs>
        <linearGradient x1="50%" y1="0%" x2="50%" y2="100%" id="linearGradient-1">
            <stop stop-color="#9FA3AB" offset="0%"></stop>
            <stop stop-color="#999DA5" offset="100%"></stop>
        </linearGradient>
        <polygon id="path-2" points="35.4890923 0.749 0.984135554 0.749 0.984135554 35.2538644 35.4890923 35.2538644 35.4890923 0.749"></polygon>
    </defs>
    <g id="Smart-TV-UI" stroke="none" stroke-width="1" fill="none" fill-rule="evenodd">
        <g id="movie_placehoder" transform="translate(-216.000000, -394.000000)">
            <g id="placeholder" transform="translate(216.000000, 394.000000)">
                <rect id="Rectangle" fill="url(#linearGradient-1)" x="0" y="0" width="251" height="373"></rect>
                <circle id="Oval" fill="#222834" opacity="0.209999993" cx="126" cy="187" r="73"></circle>
                <g id="Page-1" transform="translate(84.000000, 134.000000)">
                    <path d="M87.125,42.8083 C86.793,42.8083 86.454,42.8613 86.117,42.9663 L69.85,48.0493 L69.85,49.4573 L69.85,50.8633 L69.85,76.5933 L69.85,78.0013 L69.85,79.4083 L86.117,84.4913 C86.454,84.5963 86.793,84.6493 87.125,84.6493 C88.765,84.6493 90,83.3543 90,81.6363 L90,45.8203 C90,44.1033 88.765,42.8083 87.125,42.8083" id="Fill-1" fill="#222834"></path>
                    <path d="M9.399,82.5353 C7.92,82.5353 6.715,81.3323 6.715,79.8513 C6.715,78.3723 7.92,77.1683 9.399,77.1683 C10.878,77.1683 12.083,78.3713 12.083,79.8513 C12.083,81.3323 10.879,82.5353 9.399,82.5353 M63.58,38.2063 L3.584,38.2063 C1.607,38.2063 0,39.8143 0,41.7913 L0,85.6673 C0,87.6443 1.607,89.2513 3.584,89.2513 L63.58,89.2513 C65.557,89.2513 67.164,87.6443 67.164,85.6673 L67.164,79.4093 L67.164,78.0023 L67.164,49.4573 L67.164,48.0493 L67.164,41.7913 C67.164,39.8143 65.557,38.2063 63.58,38.2063" id="Fill-3" fill="#222834"></path>
                    <path d="M19.648,22.4993 C19.626,22.8303 19.544,23.1603 19.394,23.4743 C19.366,23.5323 19.338,23.5903 19.308,23.6473 C19.276,23.7033 19.24,23.7553 19.204,23.8093 C19.011,24.0983 18.77,24.3393 18.498,24.5263 L20.039,27.1463 L22.549,31.4143 L22.551,31.4163 L22.554,31.4093 C23.879,30.3243 25.032,28.9843 25.926,27.4073 C26.82,25.8303 27.389,24.1303 27.64,22.4363 L27.63,22.4363 L22.684,22.4753 L19.648,22.4993 Z" id="Fill-5" fill="#222834"></path>
                    <path d="M10.911,24.0373 C10.873,23.9853 10.835,23.9353 10.799,23.8813 C10.765,23.8263 10.736,23.7703 10.704,23.7133 C10.537,23.4093 10.436,23.0843 10.397,22.7553 L7.362,22.8983 L2.416,23.1303 L2.413,23.1313 L2.417,23.1383 C2.761,24.8163 3.41,26.4603 4.39,27.9863 C5.369,29.5113 6.607,30.8073 7.99,31.8183 L7.995,31.8093 L10.264,27.4153 L11.657,24.7153 C11.373,24.5423 11.119,24.3143 10.911,24.0373" id="Fill-7" fill="#222834"></path>
                    <path d="M44.108,15.4613 C44.222,15.0793 44.408,14.7143 44.669,14.3853 C44.717,14.3243 44.764,14.2653 44.816,14.2073 C44.869,14.1483 44.925,14.0973 44.981,14.0443 C45.286,13.7563 45.633,13.5383 46.004,13.3913 L44.901,9.8993 L43.103,4.2083 L43.101,4.2043 L43.094,4.2123 C41.244,5.1303 39.53,6.3923 38.054,8.0043 C36.578,9.6153 35.45,11.4593 34.7,13.3813 L34.712,13.3843 L40.531,14.6713 L44.108,15.4613 Z" id="Fill-9" fill="#222834"></path>
                    <path d="M14.711,16.2373 C14.774,16.2313 14.838,16.2253 14.903,16.2243 C14.967,16.2233 15.031,16.2273 15.094,16.2313 C15.441,16.2503 15.771,16.3353 16.071,16.4753 L17.548,13.8203 L19.955,9.4933 L19.956,9.4903 L19.947,9.4903 C18.34,8.8983 16.601,8.5843 14.789,8.6133 C12.977,8.6423 11.223,9.0133 9.636,9.6563 L9.64,9.6643 L12.182,13.9073 L13.744,16.5123 C14.038,16.3643 14.364,16.2693 14.711,16.2373" id="Fill-11" fill="#222834"></path>
                    <path d="M50.774,27.5383 L49.563,24.0823 C49.177,24.1863 48.769,24.2203 48.354,24.1733 C48.277,24.1633 48.201,24.1543 48.124,24.1413 C48.047,24.1263 47.974,24.1063 47.898,24.0863 C47.493,23.9803 47.125,23.7993 46.805,23.5613 L44.416,26.3383 L40.524,30.8623 L40.521,30.8653 L40.531,30.8673 C42.285,31.9563 44.262,32.7493 46.409,33.1553 C48.556,33.5603 50.717,33.5493 52.747,33.1753 L52.743,33.1643 L50.774,27.5383 Z" id="Fill-13" fill="#222834"></path>
                    <path d="M63.739,13.8123 C63.097,11.7233 62.081,9.8163 60.804,8.1943 L60.796,8.2033 L56.735,12.5673 L54.24,15.2483 C54.512,15.5403 54.733,15.8873 54.885,16.2763 C54.912,16.3493 54.941,16.4213 54.964,16.4953 C54.986,16.5693 55.003,16.6443 55.021,16.7213 C55.115,17.1283 55.126,17.5383 55.065,17.9333 L58.635,18.7523 L64.451,20.0893 L64.455,20.0893 L64.452,20.0793 C64.6,18.0193 64.381,15.9003 63.739,13.8123" id="Fill-15" fill="#222834"></path>
                    <path d="M27.641,22.4363 C27.39,24.1293 26.821,25.8303 25.927,27.4073 C25.032,28.9843 23.88,30.3243 22.555,31.4093 L22.552,31.4163 L22.55,31.4143 L20.04,27.1463 L18.499,24.5263 C18.771,24.3393 19.012,24.0983 19.205,23.8093 C19.24,23.7553 19.276,23.7033 19.309,23.6473 C19.339,23.5903 19.367,23.5323 19.395,23.4743 C19.544,23.1613 19.626,22.8303 19.649,22.4993 L22.685,22.4753 L27.631,22.4363 L27.641,22.4363 Z M15.025,23.8793 C13.546,23.9023 12.323,22.7193 12.298,21.2383 C12.273,19.7573 13.458,18.5363 14.939,18.5113 C16.418,18.4873 17.642,19.6723 17.667,21.1513 C17.69,22.6323 16.506,23.8553 15.025,23.8793 L15.025,23.8793 Z M9.64,9.6643 L9.636,9.6563 C11.223,9.0133 12.977,8.6423 14.789,8.6133 C16.601,8.5843 18.34,8.8983 19.947,9.4903 L19.956,9.4903 L19.955,9.4933 L17.548,13.8203 L16.071,16.4753 C15.771,16.3353 15.441,16.2493 15.094,16.2313 C15.031,16.2273 14.967,16.2233 14.903,16.2243 C14.838,16.2253 14.774,16.2313 14.711,16.2373 C14.364,16.2683 14.038,16.3643 13.743,16.5123 L12.181,13.9073 L9.64,9.6643 Z M10.263,27.4153 L7.994,31.8093 L7.989,31.8183 C6.606,30.8073 5.368,29.5113 4.389,27.9863 C3.41,26.4613 2.76,24.8163 2.416,23.1383 L2.412,23.1313 L2.415,23.1303 L7.361,22.8983 L10.396,22.7553 C10.435,23.0843 10.536,23.4093 10.703,23.7133 C10.734,23.7703 10.764,23.8263 10.798,23.8813 C10.834,23.9363 10.872,23.9853 10.91,24.0373 C11.118,24.3143 11.372,24.5423 11.654,24.7153 L10.263,27.4153 Z M14.752,6.8823 C6.86,7.0093 0.542,13.5323 0.669,21.4263 C0.796,29.3193 7.32,35.6373 15.214,35.5093 C23.107,35.3833 29.424,28.8583 29.297,20.9653 C29.17,13.0723 22.645,6.7553 14.752,6.8823 L14.752,6.8823 Z" id="Fill-17" fill="#222834"></path>
                    <g id="Group-21" transform="translate(31.000000, 0.251300)">
                        <mask id="mask-3" fill="white">
                            <use xlink:href="#path-2"></use>
                        </mask>
                        <g id="Clip-20"></g>
                        <path d="M33.452,19.837 L27.636,18.5 L24.066,17.681 C24.128,17.286 24.116,16.876 24.022,16.469 C24.004,16.393 23.988,16.318 23.965,16.243 C23.942,16.169 23.913,16.097 23.886,16.024 C23.735,15.634 23.514,15.288 23.241,14.996 L25.736,12.315 L29.797,7.951 L29.805,7.942 C31.081,9.564 32.098,11.471 32.74,13.56 C33.382,15.649 33.6,17.767 33.454,19.827 L33.457,19.837 L33.452,19.837 L33.452,19.837 Z M15.41,32.904 C13.264,32.498 11.286,31.705 9.532,30.616 L9.522,30.614 L9.525,30.611 L13.417,26.087 L15.806,23.31 C16.125,23.548 16.494,23.729 16.899,23.835 C16.974,23.855 17.047,23.875 17.125,23.89 C17.202,23.904 17.278,23.912 17.355,23.922 C17.77,23.969 18.178,23.936 18.564,23.831 L19.775,27.287 L21.745,32.913 L21.749,32.924 C19.718,33.298 17.558,33.31 15.41,32.904 L15.41,32.904 Z M3.713,13.132 L3.701,13.129 C4.452,11.207 5.58,9.363 7.055,7.752 C8.531,6.14 10.245,4.878 12.095,3.96 L12.102,3.952 L12.104,3.956 L13.902,9.647 L15.005,13.139 C14.634,13.286 14.286,13.504 13.982,13.792 C13.926,13.845 13.87,13.896 13.817,13.955 C13.764,14.013 13.717,14.072 13.67,14.133 C13.409,14.462 13.224,14.827 13.109,15.209 L9.533,14.418 L3.713,13.132 Z M15.46,16.341 C16.376,14.81 18.365,14.309 19.898,15.226 C21.428,16.141 21.929,18.131 21.014,19.663 C20.098,21.194 18.107,21.695 16.576,20.779 C15.044,19.863 14.544,17.872 15.46,16.341 L15.46,16.341 Z M27.094,3.192 C18.929,-1.693 8.312,0.978 3.427,9.143 C-1.457,17.31 1.213,27.926 9.379,32.811 C17.545,37.695 28.162,35.025 33.046,26.859 C37.93,18.693 35.261,8.077 27.094,3.192 L27.094,3.192 Z" id="Fill-19" fill="#222834" mask="url(#mask-3)"></path>
                    </g>
                </g>
            </g>
        </g>
    </g>
</svg>