<?xml version="1.0" encoding="UTF-8" standalone="no"?>
<svg width="57px" height="57px" viewBox="0 0 57 57" version="1.1" xmlns="http://www.w3.org/2000/svg" xmlns:xlink="http://www.w3.org/1999/xlink">
    <!-- Generator: sketchtool 39.1 (31720) - http://www.bohemiancoding.com/sketch -->
    <title>45C1AACE-542C-4E31-8D16-F0C256BB76C3</title>
    <desc>Created with sketchtool.</desc>
    <defs></defs>
    <g id="Smart-TV-UI" stroke="none" stroke-width="1" fill="none" fill-rule="evenodd">
        <g id="button_states" transform="translate(-448.000000, -455.000000)" fill="#000000">
            <g id="Play_Selected" transform="translate(448.000000, 455.000000)">
                <path d="M28.4002357,52.9563247 C14.9498476,52.9563247 4.03957447,42.050676 4.03957447,28.6002878 C4.03957447,15.143954 14.9498476,4.24028723 28.4002357,4.24028723 C41.8512845,4.24028723 52.7595757,15.143954 52.7595757,28.6002878 C52.7595757,42.050676 41.8512845,52.9563247 28.4002357,52.9563247 M0,28.6000532 C0,44.2605 12.7395,57 28.3999468,57 C44.0603936,57 56.7968617,44.2605 56.7968617,28.6000532 C56.7968617,12.9359681 44.0603936,0.196468085 28.3999468,0.196468085 C12.7395,0.196468085 0,12.9359681 0,28.6000532 Z" id="Fill-1"></path>
                <path d="M22.6762979,19.2841915 C22.1736064,18.7790745 20.8880745,18.7790745 20.8880745,19.2841915 L20.8880745,39.8072234 C20.8880745,40.3129468 22.1766383,40.3129468 22.6811489,39.8072234 L39.5270745,30.458617 C40.0315851,29.9559255 40.0400745,29.1379149 39.5367766,28.6334043 L22.6762979,19.2841915 Z" id="Fill-3"></path>
            </g>
        </g>
    </g>
</svg>