<?xml version="1.0" encoding="utf-8"?>
<!-- Generator: Adobe Illustrator 18.0.0, SVG Export Plug-In . SVG Version: 6.00 Build 0)  -->
<!DOCTYPE svg PUBLIC "-//W3C//DTD SVG 1.1//EN" "http://www.w3.org/Graphics/SVG/1.1/DTD/svg11.dtd">
<svg version="1.1" id="Layer_1" xmlns="http://www.w3.org/2000/svg" xmlns:xlink="http://www.w3.org/1999/xlink" x="0px" y="0px"
	 viewBox="0 0 200 200" enable-background="new 0 0 200 200" xml:space="preserve">
<g>
	<g>
		<path fill="#E64C3C" d="M179.1,85.6l3.6,11.2c0.1,0.1,0.2,0.3,0.4,0.3h11.8c0.4,0,0.6,0.5,0.2,0.7l-9.5,6.9
			c-0.1,0.1-0.2,0.3-0.1,0.4l3.6,11.2c0.1,0.4-0.3,0.7-0.6,0.4l-9.5-6.9c-0.1-0.1-0.4-0.1-0.5,0l-9.5,6.9c-0.3,0.2-0.8-0.1-0.6-0.4
			l3.6-11.2c0.1-0.1,0-0.4-0.1-0.4l-9.5-6.9c-0.3-0.2-0.1-0.7,0.2-0.7h11.8c0.1,0,0.4-0.1,0.4-0.3l3.6-11.2
			C178.4,85.2,179,85.2,179.1,85.6z"/>
	</g>
	<g>
		<path fill="#E64C3C" d="M139.6,85.6l3.6,11.2c0.1,0.1,0.2,0.3,0.4,0.3h11.8c0.4,0,0.6,0.5,0.2,0.7l-9.5,6.9
			c-0.1,0.1-0.2,0.3-0.1,0.4l3.6,11.2c0.1,0.4-0.3,0.7-0.6,0.4l-9.5-6.9c-0.1-0.1-0.4-0.1-0.5,0l-9.5,6.9c-0.3,0.2-0.8-0.1-0.6-0.4
			l3.6-11.2c0.1-0.1,0-0.4-0.1-0.4l-9.5-6.9c-0.3-0.2-0.1-0.7,0.2-0.7h11.8c0.1,0,0.4-0.1,0.4-0.3l3.6-11.2
			C139,85.2,139.5,85.2,139.6,85.6z"/>
	</g>
	<g>
		<path fill="#E64C3C" d="M100.2,85.6l3.6,11.2c0.1,0.1,0.2,0.3,0.4,0.3H116c0.4,0,0.6,0.5,0.2,0.7l-9.5,6.9
			c-0.1,0.1-0.2,0.3-0.1,0.4l3.6,11.2c0.1,0.4-0.3,0.7-0.6,0.4l-9.5-6.9c-0.1-0.1-0.4-0.1-0.5,0l-9.5,6.9c-0.3,0.2-0.8-0.1-0.6-0.4
			l3.6-11.2c0.1-0.1,0-0.4-0.1-0.4l-9.5-6.9c-0.3-0.2-0.1-0.7,0.2-0.7h11.8c0.1,0,0.4-0.1,0.4-0.3l3.6-11.2
			C99.5,85.2,100.1,85.2,100.2,85.6z"/>
	</g>
	<g>
		<path fill="#E64C3C" d="M60.7,85.6l3.6,11.2c0.1,0.1,0.2,0.3,0.4,0.3h11.8c0.4,0,0.6,0.5,0.2,0.7l-9.5,6.9
			c-0.1,0.1-0.2,0.3-0.1,0.4l3.6,11.2c0.1,0.4-0.3,0.7-0.6,0.4l-9.5-6.9c-0.1-0.1-0.4-0.1-0.5,0l-9.5,6.9c-0.3,0.2-0.8-0.1-0.6-0.4
			l3.6-11.2c0.1-0.1,0-0.4-0.1-0.4l-9.5-6.9c-0.3-0.2-0.1-0.7,0.2-0.7h11.8c0.1,0,0.4-0.1,0.4-0.3l3.6-11.2
			C60.1,85.2,60.6,85.2,60.7,85.6z"/>
	</g>
	<g>
		<path fill="#E64C3C" d="M21.3,85.6l3.6,11.2c0.1,0.1,0.2,0.3,0.4,0.3h11.8c0.4,0,0.6,0.5,0.2,0.7l-9.5,6.9
			c-0.1,0.1-0.2,0.3-0.1,0.4l3.6,11.2c0.1,0.4-0.3,0.7-0.6,0.4l-9.5-6.9c-0.1-0.1-0.4-0.1-0.5,0l-9.5,6.9c-0.3,0.2-0.8-0.1-0.6-0.4
			l3.6-11.2c0.1-0.1,0-0.4-0.1-0.4l-9.5-6.9c-0.3-0.2-0.1-0.7,0.2-0.7h11.8c0.1,0,0.4-0.1,0.4-0.3l3.6-11.2
			C20.6,85.2,21.2,85.2,21.3,85.6z"/>
	</g>
</g>
</svg>
